<svg width="193" height="37" viewBox="0 0 193 37" fill="none" xmlns="http://www.w3.org/2000/svg">
<path d="M19.4918 1.29219L27.1374 17.7787L34.6044 1.29219H54.4397V6.10074H48.429V25.5067H54.4397V30.3152H35.7207V25.5067H39.6706V6.95941L29.5142 30.2912L23.95 30.3255L13.2235 6.95941V25.5067H17.3451V30.3152H0V25.5067H6.01069V6.10074H0V1.29219H19.4918Z" fill="white"/>
<path d="M89.3019 4.3833V1.29209H97.2017V11.4244H89.7313C87.5743 6.14529 81.6083 4.25278 76.3772 5.97012C70.4043 7.93132 70.1055 18.0739 72.3518 22.7932C75.3606 29.1164 88.4982 28.3196 88.0998 20.0111H98.2321C97.3872 27.6842 91.1842 30.5144 84.2324 31.1704C70.8646 32.4309 59.0699 28.5669 61.3299 12.733C63.0988 0.347548 76.889 -2.33837 86.671 2.63505L89.3019 4.3833Z" fill="white"/>
<path d="M133.438 4.38337V1.29215H141.337V11.4245H133.867C131.988 6.99372 128.107 5.13213 123.384 5.4069C117.047 5.77441 115.285 10.504 115.268 16.1472C115.251 21.9208 116.979 26.4684 123.384 26.8874C128.093 27.1965 132.253 25.2491 132.235 20.0112H142.539C141.217 27.801 135.471 30.5316 128.196 31.1704C115.831 32.2627 104.411 29.326 105.273 14.6015C106.091 0.625828 120.389 -2.7642 131.256 2.86867L133.438 4.37993V4.38337Z" fill="white"/>
<path d="M112.486 31.0055C114.245 31.4624 115.969 32.0394 117.776 32.3279C124.26 33.3686 134.362 33.2896 139.624 28.8589C142.217 26.6744 143.824 23.4183 143.917 20.0146L147.321 22.1887C147.036 28.8486 141.647 33.4167 135.571 35.1134C127.795 37.2841 118.827 36.1198 112.486 31.009V31.0055Z" fill="white"/>
<path d="M68.007 30.8338C68.876 31.0262 69.69 31.4108 70.5452 31.641C77.5142 33.5163 89.6867 33.743 95.4845 28.8589C98.0742 26.6778 99.6439 23.4115 99.7778 20.0146L103.185 22.1887C102.8 29.5527 96.4221 34.217 89.6524 35.5599C82.072 37.0643 74.107 35.6767 68.007 30.8338Z" fill="white"/>
<path d="M59.2485 35.1237H39.7566L35.7209 31.8608H55.7279C55.7451 31.8608 55.9855 31.6203 55.9855 31.6032V25.6783C56.3461 26.1523 59.2485 28.7936 59.2485 29.0271V35.1237Z" fill="white"/>
<path d="M88.0961 11.9396C84.4245 9.87196 77.6375 7.8352 76.4697 13.6226C75.6969 17.4454 76.5797 21.7525 77.9638 25.3349C72.9939 24.1396 72.537 18.9189 72.8049 14.5946C73.0419 10.7787 74.3025 7.62912 78.4172 6.9834C82.319 6.36859 86.9661 7.78711 88.0961 11.9431V11.9396Z" fill="white"/>
<path d="M132.232 11.9397C129.326 10.109 122.587 8.17873 120.939 12.4068C119.489 16.1197 120.76 21.7148 122.1 25.335C119.458 24.5896 117.988 23.0475 117.343 20.389C116.621 17.4111 116.666 12.1217 118.349 9.47704C121.19 5.01539 131.054 6.40987 132.232 11.9397Z" fill="white"/>
<path d="M59.2486 10.9093H53.2379V23.9611H49.9749V7.64633H55.728C55.7452 7.64633 55.9856 7.4059 55.9856 7.38873V1.63564C56.2501 1.67342 56.305 1.96193 56.4184 2.1474C56.7859 2.7416 59.2486 6.92505 59.2486 7.21699V10.9093Z" fill="white"/>
<path d="M18.8912 25.6784C19.0011 25.5513 20.32 26.5096 20.4402 26.6641C20.5948 26.8633 21.9824 29.8721 21.9824 30.0576V35.1237H5.06657L0.172147 31.8608H18.8912V25.6784Z" fill="white"/>
<path d="M146.318 16.0613H137.645C137.384 16.0613 134.258 13.207 133.781 12.7983H142.883V1.46387C143.182 1.3883 143.226 1.58752 143.398 1.72147C144.401 2.4874 145.315 3.81662 146.318 4.64095V16.0613Z" fill="white"/>
<path d="M89.6456 12.7983H98.7475V1.46387C99.0463 1.3883 99.0909 1.58752 99.2627 1.72147C99.6302 2.00311 102.182 4.59973 102.182 4.81268V15.8037C102.182 15.8208 101.942 16.0613 101.925 16.0613H93.5096C93.2554 16.0613 90.1092 13.2208 89.6456 12.7983Z" fill="white"/>
<path d="M37.6099 23.9611H34.1753V31.775C34.1753 32.0738 32.7224 34.4334 32.6468 35.0173C32.4991 35.2131 29.456 35.1753 29.0301 35.031C28.0581 34.6979 25.9183 32.4928 24.9016 31.8608H30.3112L38.1251 14.3439V23.0165C38.1251 23.1539 37.5584 23.6519 37.6099 23.9611Z" fill="white"/>
<path d="M27.3024 13.657L21.4669 1.46385L27.2234 6.4407C27.5772 6.89408 29.0335 9.65557 28.951 10.054C28.7621 10.9539 27.4673 12.5922 27.3024 13.6604V13.657Z" fill="white"/>
<path d="M18.0324 23.961H14.7695V14.1722L18.0324 20.9557V23.961Z" fill="white"/>
<path d="M4.63723 7.64634V10.7376L4.07051 10.5315L0.172147 7.64634H4.63723Z" fill="white"/>
<path d="M187.359 13.4028C186.452 1.12038 174.843 -0.215707 164.831 0.484968C156.035 1.09978 150.158 4.68902 149.574 14.0794C148.767 27.0522 155.952 31.1258 167.864 31.3524C180.713 31.5997 188.389 27.3236 187.359 13.4028ZM159.545 16.3188C159.466 10.1605 161.042 4.95349 168.097 4.77488C174.486 4.61345 177.01 8.05157 177.402 14.0897C177.879 21.4503 175.942 27.5674 167.359 26.8805C161.228 26.3893 159.614 21.8006 159.545 16.3188Z" fill="white"/>
<path d="M186.758 5.07372C186.538 4.87794 184.762 3.38386 184.614 3.52468C187.242 6.39607 188.647 9.65902 188.904 13.5711C189.996 29.9683 179.239 33.5884 164.951 32.716C162.117 32.5443 159.328 31.7646 156.622 31.0021C163.886 36.5491 173.812 37.6276 182.203 34.0006C193.682 29.0375 196.121 13.3513 186.754 5.07372H186.758Z" fill="white"/>
<path d="M175.169 10.9092C171.703 9.5834 166.136 8.00344 164.916 12.9356C163.903 17.0332 164.961 21.4262 166.239 25.3348C161.502 24.2632 160.846 18.6922 161.09 14.6015C161.413 9.15406 163.546 5.88425 169.426 6.26206C172.352 6.45097 174.444 8.03436 175.169 10.9057V10.9092Z" fill="white"/>
</svg>
